<?xml version="1.0" encoding="UTF-8" standalone="no"?>
<!-- Created with Inkscape (http://www.inkscape.org/) -->

<svg
   width="210mm"
   height="297mm"
   viewBox="0 0 210 297"
   version="1.1"
   id="svg1"
   xml:space="preserve"
   inkscape:version="1.3.2 (091e20e, 2023-11-25, custom)"
   sodipodi:docname="dessin555.svg"
   xmlns:inkscape="http://www.inkscape.org/namespaces/inkscape"
   xmlns:sodipodi="http://sodipodi.sourceforge.net/DTD/sodipodi-0.dtd"
   xmlns="http://www.w3.org/2000/svg"
   xmlns:svg="http://www.w3.org/2000/svg"><sodipodi:namedview
   id="namedview1"
   pagecolor="#ffffff"
   bordercolor="#000000"
   borderopacity="0.25"
   inkscape:showpageshadow="2"
   inkscape:pageopacity="0.0"
   inkscape:pagecheckerboard="0"
   inkscape:deskcolor="#d1d1d1"
   inkscape:document-units="mm"
   inkscape:zoom="0.69219276"
   inkscape:cx="501.30544"
   inkscape:cy="561.25984"
   inkscape:window-width="1920"
   inkscape:window-height="991"
   inkscape:window-x="-9"
   inkscape:window-y="-9"
   inkscape:window-maximized="1"
   inkscape:current-layer="svg1"><inkscape:page
     x="0"
     y="0"
     width="210"
     height="297"
     id="page1"
     margin="0"
     bleed="0" /><inkscape:page
     x="220"
     y="0"
     width="135.46666"
     height="135.46667"
     id="page2"
     margin="0"
     bleed="0" /></sodipodi:namedview><defs
   id="defs1" />


<g
   id="g2"
   style="display:inline"><path
     style="fill:#a58868;stroke-width:0.264583"
     d="m 166.64042,92.821711 c 0,-13.213555 -10.69234,-23.905897 -23.9059,-23.905897 -11.01143,0 -19.92154,-8.910108 -19.92154,-19.921538 0,-13.213557 -10.69234,-23.905898 -23.905892,-23.905898 -13.21356,0 -23.9059,10.692341 -23.9059,23.905898 0,11.01143 -8.910112,19.921538 -19.921542,19.921538 -13.21355,0 -23.90589,10.692342 -23.90589,23.905897 V 148.60223 H 166.64042 Z"
     id="path1" /><g
     id="g3"
     transform="matrix(0.26458333,0,0,0.26458334,31.173756,19.111969)">
	<path
   style="fill:#947859"
   d="m 421.647,188.235 c -41.618,0 -75.294,-33.676 -75.294,-75.294 C 346.353,63 305.941,22.588 256,22.588 V 489.412 H 512 V 278.588 c 0,-49.941 -40.412,-90.353 -90.353,-90.353 z"
   id="path2" />
	<rect
   x="75.293999"
   y="368.94101"
   style="fill:#947859"
   width="105.412"
   height="45.175999"
   id="rect2" />
	<rect
   x="75.293999"
   y="278.58801"
   style="fill:#947859"
   width="105.412"
   height="45.175999"
   id="rect3" />
</g>
</g>
</svg>
